<svg width="83" height="83" viewBox="0 0 83 83" fill="none" xmlns="http://www.w3.org/2000/svg">
<g clip-path="url(#clip0_62_30)">
<path d="M82.0181 41.5181C82.0181 19.1505 63.8856 1.01807 41.5181 1.01807C19.1505 1.01807 1.01807 19.1505 1.01807 41.5181C1.01807 63.8856 19.1505 82.0181 41.5181 82.0181C63.8856 82.0181 82.0181 63.8856 82.0181 41.5181Z" fill="#7A78FF"/>
<path d="M82.0181 41.5181C82.0181 19.1505 63.8856 1.01807 41.5181 1.01807C19.1505 1.01807 1.01807 19.1505 1.01807 41.5181C1.01807 63.8856 19.1505 82.0181 41.5181 82.0181C63.8856 82.0181 82.0181 63.8856 82.0181 41.5181Z" stroke="#141414"/>
<path d="M58.4201 19.9019H38.6771C38.3235 19.9016 37.9733 19.971 37.6466 20.1062C37.3199 20.2414 37.023 20.4397 36.773 20.6897C36.523 20.9398 36.3247 21.2366 36.1895 21.5634C36.0543 21.8901 35.9848 22.2403 35.9851 22.5939V42.1299C35.9851 43.6849 34.5441 44.8909 33.0321 44.5249C31.942 44.2619 30.8245 44.13 29.7031 44.1319C23.2611 44.1319 18.0371 48.3509 18.0371 53.5549C18.0371 58.7589 23.2611 62.9769 29.7031 62.9769C36.1451 62.9769 41.3631 58.5219 41.3631 53.3189L41.3701 41.4389C41.3701 39.9529 42.5751 37.8499 44.0621 37.8499H58.4201C58.7737 37.8501 59.1239 37.7807 59.4506 37.6455C59.7773 37.5103 60.0742 37.312 60.3242 37.062C60.5743 36.8119 60.7725 36.5151 60.9077 36.1884C61.0429 35.8616 61.1124 35.5114 61.1121 35.1579V22.5939C61.1124 22.2403 61.0429 21.8901 60.9077 21.5634C60.7725 21.2366 60.5743 20.9398 60.3242 20.6897C60.0742 20.4397 59.7773 20.2414 59.4506 20.1062C59.1239 19.971 58.7737 19.9016 58.4201 19.9019Z" fill="#141414"/>
</g>
<defs>
<clipPath id="clip0_62_30">
<rect width="83" height="83" fill="white"/>
</clipPath>
</defs>
</svg>
