<svg width="83" height="83" viewBox="0 0 83 83" fill="none" xmlns="http://www.w3.org/2000/svg">
<g clip-path="url(#clip0_62_16)">
<path d="M74.0801 1.01807H9.31007C4.82828 1.01807 1.19507 4.65128 1.19507 9.13307V73.9031C1.19507 78.3849 4.82828 82.0181 9.31007 82.0181H74.0801C78.5619 82.0181 82.1951 78.3849 82.1951 73.9031V9.13307C82.1951 4.65128 78.5619 1.01807 74.0801 1.01807Z" fill="#FFC412"/>
<path d="M74.0801 1.01807H9.31007C4.82828 1.01807 1.19507 4.65128 1.19507 9.13307V73.9031C1.19507 78.3849 4.82828 82.0181 9.31007 82.0181H74.0801C78.5619 82.0181 82.1951 78.3849 82.1951 73.9031V9.13307C82.1951 4.65128 78.5619 1.01807 74.0801 1.01807Z" stroke="#141414"/>
<path d="M55.157 31.1951V28.3101C55.157 20.9871 49.417 14.7061 42.08 14.5721C34.606 14.4351 28.505 20.4411 28.505 27.8691V31.1941C28.5034 32.0766 28.1516 32.9224 27.5269 33.5456C26.9021 34.1689 26.0555 34.5187 25.173 34.5181H18.983C18.5089 34.5177 18.0401 34.6186 17.6082 34.8142C17.1762 35.0097 16.791 35.2953 16.4784 35.6518C16.1659 36.0083 15.9331 36.4275 15.7957 36.8813C15.6584 37.3352 15.6196 37.8131 15.682 38.2831L19.235 64.8811C19.3426 65.6805 19.7366 66.4136 20.3439 66.9444C20.9512 67.4752 21.7305 67.7675 22.537 67.7671H61.124C61.9306 67.7675 62.7099 67.4752 63.3172 66.9444C63.9245 66.4136 64.3185 65.6805 64.426 64.8811L67.979 38.2831C68.0415 37.813 68.0027 37.335 67.8653 36.8811C67.7279 36.4272 67.495 36.0079 67.1823 35.6514C66.8696 35.2949 66.4843 35.0093 66.0522 34.8138C65.6201 34.6184 65.1513 34.5176 64.677 34.5181H58.488C57.6057 34.5184 56.7594 34.1685 56.1348 33.5453C55.5103 32.922 55.1586 32.0774 55.157 31.1951ZM35.167 27.8691C35.167 23.9141 38.644 20.7551 42.707 21.2751C46.066 21.7051 48.493 24.7211 48.493 28.1001V31.1941C48.4914 32.0763 48.1399 32.9217 47.5156 33.5449C46.8913 34.1681 46.0452 34.5181 45.163 34.5181H38.499C37.6167 34.5184 36.7704 34.1685 36.1458 33.5453C35.5213 32.922 35.1696 32.0764 35.168 31.1941L35.167 27.8691Z" fill="#141414"/>
</g>
<defs>
<clipPath id="clip0_62_16">
<rect width="83" height="83" fill="white"/>
</clipPath>
</defs>
</svg>
