<svg width="84" height="83" viewBox="0 0 84 83" fill="none" xmlns="http://www.w3.org/2000/svg">
<g clip-path="url(#clip0_62_21)">
<path d="M74.8189 1.01807H9.48292C5.00113 1.01807 1.36792 4.65128 1.36792 9.13307V73.9031C1.36792 78.3849 5.00113 82.0181 9.48292 82.0181H74.8189C79.3007 82.0181 82.9339 78.3849 82.9339 73.9031V9.13307C82.9339 4.65128 79.3007 1.01807 74.8189 1.01807Z" fill="#00A652"/>
<path d="M74.8189 1.01807H9.48292C5.00113 1.01807 1.36792 4.65128 1.36792 9.13307V73.9031C1.36792 78.3849 5.00113 82.0181 9.48292 82.0181H74.8189C79.3007 82.0181 82.9339 78.3849 82.9339 73.9031V9.13307C82.9339 4.65128 79.3007 1.01807 74.8189 1.01807Z" stroke="#141414"/>
<path d="M39.2049 28.9231C39.4545 29.1207 39.7496 29.2527 40.0633 29.3072C40.3769 29.3617 40.6992 29.3369 41.0009 29.2351L44.6349 28.0111C46.0809 27.5241 46.4099 25.6201 45.2099 24.6741L40.8999 21.2701C40.6503 21.0727 40.3554 20.9408 40.042 20.8863C39.7285 20.8318 39.4064 20.8565 39.1049 20.9581L35.4709 22.1821C34.0249 22.6691 33.6959 24.5731 34.8949 25.5191L39.2049 28.9231ZM22.7209 35.3891L29.6849 33.0441C31.1309 32.5571 31.4589 30.6521 30.2599 29.7061L25.9499 26.3041C25.7003 26.1067 25.4054 25.9748 25.092 25.9203C24.7785 25.8658 24.4564 25.8905 24.1549 25.9921L20.0429 27.3761C19.5598 27.5395 19.1612 27.8878 18.9345 28.3447C18.7079 28.8015 18.6717 29.3296 18.8339 29.8131L20.2929 34.1761C20.3724 34.4153 20.4983 34.6365 20.6635 34.827C20.8287 35.0174 21.0298 35.1734 21.2553 35.286C21.4809 35.3986 21.7264 35.4656 21.9779 35.4831C22.2294 35.5006 22.4819 35.4693 22.7209 35.3891ZM54.6299 23.7291C54.8796 23.9268 55.1749 24.059 55.4887 24.1135C55.8026 24.168 56.1251 24.1431 56.4269 24.0411L60.6179 22.6291C61.1006 22.4653 61.4988 22.1169 61.7252 21.6601C61.9516 21.2034 61.9878 20.6755 61.8259 20.1921L60.3679 15.8301C60.2885 15.5908 60.1626 15.3695 59.9975 15.1789C59.8324 14.9884 59.6313 14.8323 59.4057 14.7196C59.1801 14.6069 58.9345 14.5398 58.683 14.5222C58.4315 14.5047 58.1789 14.5369 57.9399 14.6171L50.8969 16.9891C49.4499 17.4751 49.1219 19.3791 50.3209 20.3261L54.6299 23.7291ZM60.8799 38.1171H57.9539C57.1749 38.1171 56.4489 38.5101 56.0219 39.1641L52.6959 44.2521C52.4861 44.5733 52.1997 44.8373 51.8624 45.0201C51.525 45.2029 51.1475 45.2988 50.7639 45.2991H48.2789C46.4409 45.2991 45.3389 43.2501 46.3469 41.7081C47.3549 40.1661 46.2529 38.1171 44.4159 38.1171H41.3489C40.5709 38.1171 39.8449 38.5101 39.4169 39.1641L36.0909 44.2521C35.8811 44.5733 35.5947 44.8373 35.2574 45.0201C34.92 45.2029 34.5425 45.2988 34.1589 45.2991H32.1879C30.3499 45.2991 29.2479 43.2501 30.2559 41.7081C31.2639 40.1661 30.1619 38.1171 28.3239 38.1171H22.8789C21.9881 38.119 21.1345 38.4745 20.5058 39.1055C19.877 39.7365 19.5246 40.5913 19.5259 41.4821V64.9951C19.5246 65.8859 19.877 66.7407 20.5058 67.3717C21.1345 68.0028 21.9881 68.3583 22.8789 68.3601H60.8789C61.7697 68.3583 62.6232 68.0028 63.252 67.3717C63.8808 66.7407 64.2332 65.8859 64.2319 64.9951V41.4821C64.2332 40.5913 63.8808 39.7365 63.252 39.1055C62.6232 38.4745 61.7707 38.119 60.8799 38.1171Z" fill="#141414"/>
</g>
<defs>
<clipPath id="clip0_62_21">
<rect width="84" height="83" fill="white"/>
</clipPath>
</defs>
</svg>
