<svg width="83" height="83" viewBox="0 0 83 83" fill="none" xmlns="http://www.w3.org/2000/svg">
<g clip-path="url(#clip0_62_11)">
<path d="M82.231 41.5181C82.231 19.1505 64.0985 1.01807 41.731 1.01807C19.3634 1.01807 1.23096 19.1505 1.23096 41.5181C1.23096 63.8856 19.3634 82.0181 41.731 82.0181C64.0985 82.0181 82.231 63.8856 82.231 41.5181Z" fill="#478BFF"/>
<path d="M82.231 41.5181C82.231 19.1505 64.0985 1.01807 41.731 1.01807C19.3634 1.01807 1.23096 19.1505 1.23096 41.5181C1.23096 63.8856 19.3634 82.0181 41.731 82.0181C64.0985 82.0181 82.231 63.8856 82.231 41.5181Z" stroke="#141414"/>
<path d="M63.82 20.6231H52.742C51.444 20.6231 50.221 21.3731 49.752 22.5801C49.1464 24.1411 48.0828 25.4825 46.7009 26.428C45.319 27.3736 43.6834 27.879 42.009 27.8781C40.3346 27.879 38.699 27.3736 37.3171 26.428C35.9352 25.4825 34.8716 24.1411 34.266 22.5801C33.797 21.3721 32.575 20.6231 31.276 20.6231H20.199C19.7901 20.6223 19.385 20.7021 19.007 20.8581C18.629 21.014 18.2855 21.243 17.996 21.5318C17.7066 21.8207 17.477 22.1638 17.3203 22.5415C17.1636 22.9192 17.083 23.3241 17.083 23.7331V35.1331C17.0833 35.5418 17.1641 35.9465 17.3209 36.324C17.4777 36.7015 17.7073 37.0443 17.9967 37.333C18.2861 37.6216 18.6296 37.8504 19.0075 38.0062C19.3854 38.162 19.7903 38.2418 20.199 38.2411H25.392C25.8009 38.2403 26.206 38.3201 26.584 38.4761C26.962 38.632 27.3056 38.861 27.595 39.1498C27.8844 39.4387 28.114 39.7818 28.2707 40.1595C28.4274 40.5372 28.508 40.9421 28.508 41.3511V61.0411C28.508 61.45 28.5886 61.8549 28.7453 62.2326C28.902 62.6103 29.1316 62.9534 29.421 63.2423C29.7105 63.5311 30.054 63.7601 30.432 63.916C30.81 64.072 31.2151 64.1518 31.624 64.1511H52.396C52.8049 64.1518 53.21 64.072 53.588 63.916C53.966 63.7601 54.3096 63.5311 54.599 63.2423C54.8884 62.9534 55.118 62.6103 55.2747 62.2326C55.4314 61.8549 55.512 61.45 55.512 61.0411V41.3511C55.512 40.9421 55.5926 40.5372 55.7493 40.1595C55.906 39.7818 56.1356 39.4387 56.425 39.1498C56.7145 38.861 57.058 38.632 57.436 38.4761C57.814 38.3201 58.2191 38.2403 58.628 38.2411H63.821C64.2298 38.2418 64.6348 38.162 65.0128 38.0061C65.3907 37.8503 65.7342 37.6214 66.0236 37.3326C66.313 37.0439 66.5427 36.7009 66.6994 36.3233C66.8561 35.9457 66.9369 35.5409 66.937 35.1321V23.7321C66.9369 23.3232 66.8561 22.9184 66.6994 22.5408C66.5427 22.1632 66.313 21.8202 66.0236 21.5315C65.7342 21.2427 65.3907 21.0138 65.0128 20.858C64.6348 20.7021 64.2288 20.6223 63.82 20.6231Z" fill="#141414"/>
</g>
<defs>
<clipPath id="clip0_62_11">
<rect width="83" height="83" fill="white"/>
</clipPath>
</defs>
</svg>
